<svg width="32" height="32" viewBox="0 0 32 32" fill="none" xmlns="http://www.w3.org/2000/svg">
<path d="M30.3576 31.6372H22.4975C21.6974 31.6372 21.0856 31.0253 21.0856 30.2252C21.0856 29.4251 21.6974 28.8132 22.4975 28.8132H28.9456V16.0583L15.9083 3.39757L2.82396 16.0583V28.8132H14.4493V21.9416C14.4493 21.1414 15.0611 20.5296 15.8612 20.5296C16.6614 20.5296 17.2732 21.1414 17.2732 21.9416V30.2252C17.2732 31.0253 16.6614 31.6372 15.8612 31.6372H1.41198C0.611858 31.6372 0 31.0253 0 30.2252V15.4465C0 15.0699 0.141198 14.6934 0.423594 14.411L14.9199 0.432419C15.2494 0.102957 15.673 -0.0382411 16.0966 0.00882487C16.379 0.0558908 16.6614 0.197089 16.8967 0.385353L31.3459 14.411C31.6283 14.6934 31.7695 15.0229 31.7695 15.4465V30.1781C31.7695 30.9782 31.1577 31.6372 30.3576 31.6372Z" fill="white"/>
<path d="M23.8154 0.620728H29.8869V10.081L23.8154 4.99786V0.620728Z" fill="white"/>
<path d="M15.9663 13.4587C13.8325 13.4587 12.1255 15.15 12.1255 17.2642C12.1255 20.224 15.6005 23.365 15.7224 23.4858C15.7834 23.5462 15.8443 23.5462 15.9053 23.5462C15.9663 23.5462 16.0272 23.5462 16.0882 23.4858C16.2101 23.365 19.6851 20.2844 19.6851 17.2642C19.807 15.15 18.0391 13.4587 15.9663 13.4587ZM15.9663 19.3783C14.8079 19.3783 13.8325 18.4119 13.8325 17.2642C13.8325 16.1165 14.8079 15.15 15.9663 15.15C17.1246 15.15 18.1 16.1165 18.1 17.2642C18.1 18.4119 17.1246 19.3783 15.9663 19.3783Z" fill="white"/>
<path d="M12.4299 13.7226C13.3574 12.7842 14.5749 12.1978 15.9663 12.1978C17.3576 12.1978 18.6331 12.7842 19.5027 13.7226C20.4302 14.661 20.952 15.9512 20.952 17.3001C20.952 19.1182 19.9664 20.8776 18.9809 22.2265C18.0533 23.4582 17.1257 24.3379 17.0098 24.3965C16.8359 24.5138 16.6619 24.6311 16.488 24.6898C16.3141 24.7484 16.0822 24.8071 15.9083 24.8071C15.7344 24.8071 15.5025 24.7484 15.3285 24.6898C15.1546 24.6311 14.9807 24.5138 14.8068 24.3965C14.6908 24.2792 13.0676 22.813 11.9661 20.8776C11.3284 19.822 10.8646 18.5904 10.8646 17.3001C10.9225 15.8926 11.5023 14.661 12.4299 13.7226ZM15.9663 13.6053C13.9372 13.6053 12.3139 15.2474 12.3139 17.3001C12.3139 20.1739 15.6184 23.2236 15.7344 23.3409C15.7923 23.3995 15.8503 23.3995 15.9083 23.3995C15.9663 23.3995 16.0242 23.3995 16.0822 23.3409C16.1982 23.2236 19.5027 20.2325 19.5027 17.3001C19.6186 15.2474 17.9374 13.6053 15.9663 13.6053ZM15.9663 19.3528C14.8648 19.3528 13.9372 18.4144 13.9372 17.3001C13.9372 16.1858 14.8648 15.2474 15.9663 15.2474C17.0678 15.2474 17.9953 16.1858 17.9953 17.3001C17.9953 18.4144 17.0678 19.3528 15.9663 19.3528ZM15.5025 17.7107C15.6184 17.828 15.7923 17.8866 15.9663 17.8866C16.1402 17.8866 16.3141 17.828 16.43 17.7107C16.546 17.5934 16.604 17.4174 16.604 17.2415C16.604 17.0655 16.546 16.8896 16.43 16.7723C16.3141 16.655 16.1402 16.5963 15.9663 16.5963C15.7923 16.5963 15.6184 16.655 15.5025 16.7723C15.3865 16.8896 15.3285 17.0655 15.3285 17.2415C15.3285 17.4761 15.3865 17.652 15.5025 17.7107Z" fill="#3AB44E"/>
</svg>
