<svg width="29" height="28" viewBox="0 0 29 28" fill="none" xmlns="http://www.w3.org/2000/svg">
<circle cx="14.7147" cy="12.2" r="4.088" stroke="white" stroke-width="2"/>
<mask id="path-2-inside-1_987_1375" fill="white">
<path fill-rule="evenodd" clip-rule="evenodd" d="M16.2082 18.0115C15.7268 17.9079 15.2271 17.8534 14.7147 17.8534C14.2022 17.8534 13.7025 17.9079 13.221 18.0115C13.6919 18.1617 14.1938 18.2427 14.7145 18.2427C15.2353 18.2427 15.7372 18.1617 16.2082 18.0115ZM16.5247 18.0873C15.9623 18.3014 15.3521 18.4187 14.7145 18.4187C14.077 18.4187 13.4668 18.3015 12.9045 18.0874C9.87871 18.8869 7.64804 21.643 7.64804 24.92V27.1814H21.7814V24.92C21.7814 21.6429 19.5506 18.8867 16.5247 18.0873Z"/>
</mask>
<path d="M16.2082 18.0115L16.8158 19.917L23.9703 17.6358L16.6289 16.0562L16.2082 18.0115ZM13.221 18.0115L12.8002 16.0563L5.45883 17.6361L12.6135 19.917L13.221 18.0115ZM16.5247 18.0873L17.0356 16.1536L16.4139 15.9894L15.813 16.2182L16.5247 18.0873ZM12.9045 18.0874L13.6161 16.2182L13.0152 15.9895L12.3935 16.1537L12.9045 18.0874ZM7.64804 27.1814H5.64804V29.1814H7.64804V27.1814ZM21.7814 27.1814V29.1814H23.7814V27.1814H21.7814ZM14.7147 19.8534C15.0848 19.8534 15.4435 19.8927 15.7875 19.9667L16.6289 16.0562C16.0101 15.9231 15.3694 15.8534 14.7147 15.8534V19.8534ZM13.6417 19.9668C13.9858 19.8927 14.3445 19.8534 14.7147 19.8534V15.8534C14.0599 15.8534 13.4191 15.9231 12.8002 16.0563L13.6417 19.9668ZM12.6135 19.917C13.2785 20.1291 13.9852 20.2427 14.7145 20.2427V16.2427C14.4023 16.2427 14.1053 16.1943 13.8284 16.106L12.6135 19.917ZM14.7145 20.2427C15.4439 20.2427 16.1506 20.129 16.8158 19.917L15.6007 16.106C15.3237 16.1943 15.0267 16.2427 14.7145 16.2427V20.2427ZM14.7145 20.4187C15.5991 20.4187 16.4502 20.2557 17.2364 19.9564L15.813 16.2182C15.4743 16.3472 15.1051 16.4187 14.7145 16.4187V20.4187ZM12.1928 19.9565C12.9789 20.2558 13.83 20.4187 14.7145 20.4187V16.4187C14.3239 16.4187 13.9547 16.3472 13.6161 16.2182L12.1928 19.9565ZM9.64804 24.92C9.64804 22.5732 11.2454 20.5944 13.4154 20.021L12.3935 16.1537C8.51202 17.1794 5.64804 20.7127 5.64804 24.92H9.64804ZM9.64804 27.1814V24.92H5.64804V27.1814H9.64804ZM21.7814 25.1814H7.64804V29.1814H21.7814V25.1814ZM19.7814 24.92V27.1814H23.7814V24.92H19.7814ZM16.0138 20.0209C18.1839 20.5943 19.7814 22.5731 19.7814 24.92H23.7814C23.7814 20.7126 20.9172 17.1792 17.0356 16.1536L16.0138 20.0209Z" fill="white" mask="url(#path-2-inside-1_987_1375)"/>
<path d="M1.5 12.6947L14.432 2.23599L20.7213 6.97066V4.49733H24.1133V9.65599L28 13.1187" stroke="white" stroke-width="2"/>
</svg>
