<svg width="29" height="29" viewBox="0 0 29 29" fill="none" xmlns="http://www.w3.org/2000/svg">
<path d="M21.9009 15.6224C21.7691 15.4904 21.6125 15.3856 21.4401 15.3141C21.2678 15.2427 21.0831 15.2059 20.8965 15.2059C20.7099 15.2059 20.5252 15.2427 20.3528 15.3141C20.1805 15.3856 20.0239 15.4904 19.8921 15.6224L17.6276 17.8868C16.5777 17.5743 14.6186 16.864 13.377 15.6224C12.1353 14.3808 11.425 12.4218 11.1125 11.372L13.377 9.10759C13.509 8.97577 13.6138 8.81922 13.6853 8.64688C13.7567 8.47454 13.7935 8.2898 13.7935 8.10323C13.7935 7.91666 13.7567 7.73192 13.6853 7.55958C13.6138 7.38724 13.509 7.23069 13.377 7.09887L7.6944 1.41652C7.56258 1.28448 7.40602 1.17973 7.23367 1.10826C7.06133 1.03679 6.87658 1 6.69 1C6.50342 1 6.31868 1.03679 6.14633 1.10826C5.97398 1.17973 5.81742 1.28448 5.6856 1.41652L1.83281 5.26916C1.29296 5.80898 0.988942 6.55053 1.00031 7.3077C1.03298 9.33062 1.56857 16.3569 7.10625 21.8943C12.6439 27.4318 19.6705 27.9659 21.6949 28H21.7347C22.4848 28 23.1937 27.7045 23.7307 27.1675L27.5835 23.3149C27.7155 23.1831 27.8203 23.0265 27.8917 22.8542C27.9632 22.6819 28 22.4971 28 22.3105C28 22.124 27.9632 21.9392 27.8917 21.7669C27.8203 21.5946 27.7155 21.438 27.5835 21.3062L21.9009 15.6224ZM21.7205 25.1574C19.9475 25.1276 13.8813 24.6517 9.11505 19.8842C4.33315 15.1025 3.87002 9.01525 3.8416 7.27787L6.69 4.42959L10.3638 8.10323L8.5269 9.94005C8.35992 10.1069 8.23715 10.3127 8.16968 10.5389C8.10221 10.7651 8.09218 11.0046 8.14048 11.2356C8.17458 11.399 9.0085 15.2729 11.3668 17.6311C13.725 19.9893 17.5992 20.8232 17.7625 20.8573C17.9934 20.9069 18.2332 20.8977 18.4596 20.8304C18.686 20.7632 18.8918 20.64 19.0582 20.4723L20.8965 18.6355L24.5703 22.3091L21.7205 25.1574Z" fill="white" stroke="#213955"/>
</svg>
